<svg width="512" height="512" viewBox="0 0 512 512" fill="none" xmlns="http://www.w3.org/2000/svg">
<rect width="512" height="512" rx="60" fill="#0A0A0F"/>
<path d="M156 120H356V200H156V120Z" fill="#00E5FF" fill-opacity="0.2"/>
<path d="M356 200H156V392L181 367L206 392L231 367L256 392L281 367L306 392L331 367L356 392V200Z" fill="#E0E0E0"/>
<rect x="186" y="240" width="140" height="20" rx="2" fill="#333333"/>
<rect x="186" y="280" width="140" height="10" rx="2" fill="#CCCCCC"/>
<rect x="186" y="305" width="100" height="10" rx="2" fill="#CCCCCC"/>
<rect x="186" y="330" width="80" height="10" rx="2" fill="#CCCCCC"/>
<path d="M386 200H126C114.954 200 106 208.954 106 220V240C106 251.046 114.954 260 126 260H386C397.046 260 406 251.046 406 240V220C406 208.954 397.046 200 386 200Z" fill="#00E5FF"/>
<circle cx="146" cy="230" r="5" fill="#004D40"/>
</svg>