<svg width="512" height="512" viewBox="0 0 512 512" fill="none" xmlns="http://www.w3.org/2000/svg">
    <defs>
        <linearGradient id="cyber-grad" x1="0" y1="0" x2="512" y2="512" gradientUnits="userSpaceOnUse">
            <stop stop-color="#54d7f6" />
            <stop offset="1" stop-color="#706bf3" />
        </linearGradient>
        <filter id="glow" x="-20%" y="-20%" width="140%" height="140%">
            <feGaussianBlur stdDeviation="15" result="blur" />
            <feComposite in="SourceGraphic" in2="blur" operator="over" />
        </filter>
    </defs>

    <rect width="512" height="512" rx="100" fill="#171925" />

    <g opacity="0.8">
        <rect x="96" y="150" width="50" height="50" rx="8" fill="#3a3962" stroke="#54d7f6" stroke-width="4"/>
        <rect x="156" y="150" width="50" height="50" rx="8" fill="#54d7f6" />
        <rect x="96" y="210" width="50" height="50" rx="8" fill="#54d7f6" />
        <rect x="156" y="210" width="50" height="50" rx="8" fill="#3a3962" stroke="#54d7f6" stroke-width="4"/>

        <rect x="96" y="270" width="50" height="50" rx="8" fill="#3a3962" stroke="#54d7f6" stroke-width="4"/>
        <rect x="156" y="270" width="50" height="50" rx="8" fill="#54d7f6" opacity="0.5"/>
    </g>

    <path d="M250 256 L300 256" stroke="#706bf3" stroke-width="12" stroke-linecap="round"/>
    <path d="M290 236 L310 256 L290 276" stroke="#706bf3" stroke-width="12" stroke-linecap="round" stroke-linejoin="round"/>

    <g filter="url(#glow)">
        <path d="M350 320 C 350 320, 360 180, 480 180" stroke="url(#cyber-grad)" stroke-width="24" stroke-linecap="round" fill="none"/>

        <circle cx="350" cy="320" r="12" fill="#171925" stroke="#54d7f6" stroke-width="6"/>
        <circle cx="480" cy="180" r="12" fill="#171925" stroke="#706bf3" stroke-width="6"/>

        <path d="M420 280 L 460 240 L 470 250 L 430 290 Z" fill="#e0f0ff"/>
        <path d="M420 280 L 415 295 L 430 290 Z" fill="#54d7f6"/>
    </g>

    <rect x="20" y="20" width="472" height="472" rx="80" stroke="#3a3962" stroke-width="4" stroke-dasharray="40 40" opacity="0.5"/>
</svg>