<svg xmlns="http://www.w3.org/2000/svg" viewBox="0 0 512 512">
  <defs>
    <linearGradient id="grad1" x1="0%" y1="0%" x2="100%" y2="100%">
      <stop offset="0%" style="stop-color:#0f1014;stop-opacity:1" />
      <stop offset="100%" style="stop-color:#1a1b2e;stop-opacity:1" />
    </linearGradient>
    <linearGradient id="grad2" x1="0%" y1="0%" x2="100%" y2="0%">
      <stop offset="0%" style="stop-color:#54d7f6;stop-opacity:1" />
      <stop offset="100%" style="stop-color:#706bf3;stop-opacity:1" />
    </linearGradient>
  </defs>

  <rect x="0" y="0" width="512" height="512" rx="100" fill="url(#grad1)" stroke="#3a3962" stroke-width="10"/>

  <rect x="80" y="80" width="352" height="280" rx="20" fill="#000" stroke="url(#grad2)" stroke-width="12"/>

  <rect x="110" y="130" width="200" height="20" rx="10" fill="#333"/>
  <rect x="110" y="170" width="290" height="20" rx="10" fill="#54d7f6"/>
  <rect x="110" y="210" width="250" height="20" rx="10" fill="#333"/>
  <rect x="110" y="250" width="180" height="20" rx="10" fill="#333"/>

  <circle cx="380" cy="380" r="70" fill="url(#grad2)" stroke="#0f1014" stroke-width="8"/>
  <path d="M365 355 L410 380 L365 405 Z" fill="#fff"/>

  <path d="M200 380 L312 380 L330 430 L182 430 Z" fill="#3a3962"/>
  <rect x="150" y="430" width="212" height="20" rx="10" fill="#54d7f6"/>
</svg>