<svg xmlns="http://www.w3.org/2000/svg" viewBox="0 0 512 512">
  <defs>
    <filter id="glow" x="-20%" y="-20%" width="140%" height="140%">
      <feGaussianBlur stdDeviation="15" result="blur"/>
      <feComposite in="SourceGraphic" in2="blur" operator="over"/>
    </filter>
  </defs>
  <rect width="512" height="512" fill="#050505" rx="100"/>
  <path d="M256 128c-80 0-150 50-190 128 40 78 110 128 190 128s150-50 190-128c-40-78-110-128-190-128zm0 216c-48.6 0-88-39.4-88-88s39.4-88 88-88 88 39.4 88 88-39.4 88-88 88zm0-144c-30.9 0-56 25.1-56 56s25.1 56 56 56 56-25.1 56-56-25.1-56-56-56z" fill="#bc13fe" filter="url(#glow)"/>
  <circle cx="256" cy="256" r="30" fill="#fff"/>
  <path d="M256 90v60M256 362v60M90 256h60M362 256h60" stroke="#bc13fe" stroke-width="20" stroke-linecap="round"/>
</svg>