<svg width="512" height="512" viewBox="0 0 512 512" fill="none" xmlns="http://www.w3.org/2000/svg">
    <rect width="512" height="512" rx="100" fill="#171925" />

    <rect x="100" y="100" width="90" height="90" rx="8" fill="#00ff9d" opacity="0.8"/>
    <rect x="210" y="100" width="90" height="90" rx="8" fill="#00ff9d" opacity="0.6"/>
    <rect x="320" y="100" width="90" height="90" rx="8" fill="#00ff9d" opacity="0.4"/>

    <rect x="100" y="210" width="90" height="90" rx="8" fill="#54d7f6" opacity="0.8"/>
    <rect x="210" y="210" width="90" height="90" rx="8" fill="#54d7f6" opacity="0.6"/>
    <rect x="320" y="210" width="90" height="90" rx="8" fill="#54d7f6" opacity="0.4"/>

    <rect x="100" y="320" width="90" height="90" rx="8" fill="#706bf3" opacity="0.8"/>
    <rect x="210" y="320" width="90" height="90" rx="8" fill="#706bf3" opacity="0.6"/>
    <rect x="320" y="320" width="90" height="90" rx="8" fill="#706bf3" opacity="0.4"/>

    <line x1="100" y1="195" x2="410" y2="195" stroke="#171925" stroke-width="4" stroke-dasharray="10 10"/>
    <line x1="100" y1="305" x2="410" y2="305" stroke="#171925" stroke-width="4" stroke-dasharray="10 10"/>
    <line x1="200" y1="100" x2="200" y2="410" stroke="#171925" stroke-width="4" stroke-dasharray="10 10"/>
    <line x1="310" y1="100" x2="310" y2="410" stroke="#171925" stroke-width="4" stroke-dasharray="10 10"/>
</svg>